<?xml version="1.0" encoding="utf-8"?>
<!-- Generator: Adobe Illustrator 16.0.0, SVG Export Plug-In . SVG Version: 6.00 Build 0)  -->
<!DOCTYPE svg PUBLIC "-//W3C//DTD SVG 1.1//EN" "http://www.w3.org/Graphics/SVG/1.1/DTD/svg11.dtd">
<svg version="1.1" id="圖層_1" xmlns="http://www.w3.org/2000/svg" xmlns:xlink="http://www.w3.org/1999/xlink" x="0px" y="0px"
	 width="150px" height="150px" viewBox="0 0 150 150" enable-background="new 0 0 150 150" xml:space="preserve">
<circle fill="#DDDDDD" cx="75" cy="75" r="75"/>
<g>
	<path fill="#FFFFFF" d="M127.208,95.892H90.489l0.551-2.046h36.717L127.208,95.892z"/>
	<path fill="#FFFFFF" d="M126.098,99.984H89.377l0.548-2.043h36.721L126.098,99.984z"/>
	<path fill="#FFFFFF" d="M124.997,104.086H88.276l0.551-2.045h36.72L124.997,104.086z"/>
	<path fill="#FFFFFF" d="M48.052,75.924c0.187-0.697,0.149-1.205-0.111-1.524c-0.26-0.321-0.749-0.48-1.47-0.48
		c-0.778,0-1.365,0.146-1.76,0.438c-0.396,0.293-0.692,0.815-0.894,1.566l-1.26,5.233H30.121l0.532-2.513
		c1.02-3.811,2.877-6.51,5.573-8.096c2.695-1.585,6.683-2.377,11.966-2.377c4.938,0,8.422,0.777,10.449,2.33
		c2.026,1.553,2.618,3.898,1.774,7.042c-0.983,3.671-5.295,8.476-12.932,14.409c-1.488,1.176-2.609,2.067-3.37,2.672
		c-2.74,2.177-5.378,4.492-6.391,5.879c-0.843,1.152-1.22,2.02-1.22,2.02l17.308,0.006l-1.92,7.164H22.243l1.792-6.688
		c0.444-1.661,1.343-3.31,2.695-4.95c1.351-1.641,3.8-3.861,7.345-6.664c0.798-0.622,1.934-1.506,3.415-2.646
		c6-4.654,9.238-7.876,9.716-9.656L48.052,75.924z"/>
	<path fill="#FFFFFF" d="M68.212,109.686l2.6-9.703H52.791l1.641-6.141l17.968-24.806h17.069L83.37,91.79l-10.283,0.011
		l5.652-16.242h-1.207L65.511,93.84l23.346,0.002l-1.641,6.141h-6.037l-2.604,9.703H68.212z"/>
	<path fill="#FFFFFF" d="M91.585,91.793l6.096-22.757h11.082l-2.924,10.921h0.173c1.134-1.145,2.412-1.988,3.842-2.535
		c1.429-0.543,3.04-0.813,4.841-0.813c2.421,0,4.117,0.464,5.078,1.396c0.963,0.932,1.194,2.319,0.701,4.166l-2.576,9.621h-11.176
		l1.942-7.256c0.202-0.751,0.187-1.256-0.045-1.523c-0.229-0.267-0.719-0.399-1.465-0.399c-0.691,0-1.243,0.155-1.657,0.468
		c-0.415,0.313-0.71,0.797-0.888,1.455l-1.943,7.256H91.585z"/>
	<path fill="#FFFFFF" d="M41.687,44.591h0.833c1.917,0,3.554,0.028,3.174,2.57c-0.367,2.462-2.135,2.462-3.926,2.462h-0.834
		L41.687,44.591z M34.355,60.541h4.948l0.999-6.69h2.803c4.317,0,7.051-2.087,7.763-6.851c0.691-4.628-1.835-6.636-5.926-6.636
		H37.37L34.355,60.541z"/>
	<path fill="#FFFFFF" d="M71.485,41.334l-1.261,8.443h0.042c1.06-1.238,2.209-1.812,3.689-1.812c2.71,0,3.74,1.9,3.311,4.773
		l-1.037,6.939h-3.794l0.868-5.813c0.198-1.326,0.215-2.695-1.307-2.695c-1.502,0-2.186,1.369-2.384,2.695l-0.868,5.813H64.95
		l2.742-18.343H71.485z"/>
	<path fill="#FFFFFF" d="M85.192,51.457c1.543,0,2.265,1.172,2.056,2.562c-0.215,1.437-1.276,2.543-2.819,2.543
		c-1.542,0-2.272-1.106-2.059-2.543C82.577,52.629,83.649,51.457,85.192,51.457z M85.713,47.965c-3.438,0-6.768,2.188-7.347,6.054
		c-0.577,3.87,2.123,6.036,5.541,6.036c3.44,0,6.769-2.189,7.344-6.036C91.829,50.153,89.153,47.965,85.713,47.965z"/>
	<path fill="#FFFFFF" d="M96.974,49.754h0.042c1.085-1.259,2.271-1.789,3.646-1.789c1.542,0,2.777,0.663,3.326,2.165
		c0.939-1.414,2.49-2.165,3.949-2.165c2.711,0,3.367,1.877,2.979,4.486l-1.081,7.226h-3.794l0.81-5.414
		c0.174-1.172,0.504-3.094-1.102-3.094c-1.752,0-2.074,1.745-2.276,3.094l-0.809,5.414h-3.795l0.809-5.414
		c0.188-1.261,0.476-3.183-1.212-3.183c-1.689,0-1.977,1.922-2.166,3.183l-0.808,5.414h-3.795l1.694-11.336h3.795L96.974,49.754z"/>
	<path fill="#FFFFFF" d="M116.058,52.364c0.404-1.173,1.414-1.791,2.518-1.791c1.022,0,1.855,0.706,1.881,1.791H116.058z
		 M123.695,54.264c0.577-3.868-1.206-6.299-4.918-6.299c-3.481,0-6.261,2.276-6.825,6.054c-0.584,3.913,1.746,6.036,5.289,6.036
		c2.441,0,5.02-1.217,6.023-3.891h-3.648c-0.527,0.752-1.156,1.039-1.968,1.039c-1.563,0-2.245-0.884-2.001-2.52h7.984
		L123.695,54.264z"/>
	<path fill="#FFFFFF" d="M65.415,47.283l0.896-5.986c-0.993-0.467-2.009-0.784-3.104-0.909l-0.736,4.865
		C63.719,45.472,64.8,46.162,65.415,47.283z"/>
	<path fill="#FFFFFF" d="M64.46,53.678c-0.971,1.035-2.273,1.746-3.566,1.964l-0.737,4.866c1.095-0.115,2.11-0.436,3.408-0.84
		L64.46,53.678z"/>
	<path fill="#FFFFFF" d="M60.156,60.508l0.737-4.866c-0.268,0.044-0.536,0.075-0.8,0.075c-2.933,0-4.577-2.19-4.123-5.223
		c0.446-2.98,2.743-5.326,5.627-5.326c0.298,0,0.587,0.034,0.872,0.084l0.736-4.865c-0.342-0.039-0.693-0.061-1.055-0.061
		c-2.547,0-5.294,1.172-7.363,3.107c-2.011,1.886-3.327,4.41-3.717,7.034c-0.427,2.855,0.114,5.352,1.821,7.264
		c1.604,1.807,3.857,2.827,6.381,2.827C59.579,60.56,59.87,60.538,60.156,60.508z"/>
	<path fill="#FFFFFF" d="M92.96,41.137c0.74,0,1.164,0.705,1.061,1.404c-0.097,0.652-0.77,1.484-1.485,1.484
		c-0.717,0-1.144-0.833-1.049-1.484C91.59,41.842,92.222,41.137,92.96,41.137z M92.413,44.857c1.26,0,2.291-1.044,2.475-2.281
		c0.177-1.209-0.544-2.269-1.805-2.269c-1.262,0-2.295,1.06-2.472,2.269C90.429,43.813,91.151,44.857,92.413,44.857z"/>
	<path fill="#FFFFFF" d="M98.5,40.307h0.607l1.831,3.02h0.012l0.428-2.906h0.843l-0.649,4.408h-0.607l-1.831-3.021h-0.012
		l-0.433,2.935h-0.842L98.5,40.307z"/>
	<path fill="#FFFFFF" d="M106.015,44.008h1.191l-0.107,0.734h-2.037l0.639-4.321h0.842L106.015,44.008z"/>
	<path fill="#FFFFFF" d="M111.076,44.742h-0.843l0.637-4.321h0.844L111.076,44.742z"/>
	<path fill="#FFFFFF" d="M115.209,40.307h0.607l1.831,3.02h0.012l0.428-2.906h0.843l-0.649,4.408h-0.607l-1.831-3.021h-0.011
		l-0.434,2.935h-0.843L115.209,40.307z"/>
	<path fill="#FFFFFF" d="M123.144,41.154l-0.141,0.952h1.343l-0.108,0.733h-1.342l-0.173,1.169h1.394l-0.109,0.734h-2.234
		l0.637-4.321h2.235l-0.108,0.733H123.144z"/>
</g>
</svg>
